<mxfile host="app.diagrams.net" modified="2023-11-16T10:44:03.184Z" agent="Mozilla/5.0 (Windows NT 10.0; Win64; x64) AppleWebKit/537.36 (KHTML, like Gecko) Chrome/119.0.0.0 Safari/537.36 Edg/119.0.0.0" etag="j1hO7gyWUkvEue2sj0Xr" version="22.1.2" type="device">
  <diagram name="Pagina-1" id="AklgBBZ55UqX8LKS-bjn">
    <mxGraphModel dx="-18" dy="1621" grid="1" gridSize="10" guides="1" tooltips="1" connect="1" arrows="1" fold="1" page="1" pageScale="1" pageWidth="827" pageHeight="1169" math="0" shadow="0">
      <root>
        <mxCell id="0" />
        <mxCell id="1" parent="0" />
        <mxCell id="zqOGd3VY8RIyfRowcfvK-55" value="" style="rounded=1;whiteSpace=wrap;html=1;fillColor=none;" parent="1" vertex="1">
          <mxGeometry x="1680" y="720" width="480" height="160" as="geometry" />
        </mxCell>
        <mxCell id="zqOGd3VY8RIyfRowcfvK-1" value="&lt;font style=&quot;font-size: 25px;&quot;&gt;Microservizio &quot;Negozio&quot;&lt;/font&gt;" style="ellipse;whiteSpace=wrap;html=1;" parent="1" vertex="1">
          <mxGeometry x="1720" y="120" width="400" height="400" as="geometry" />
        </mxCell>
        <mxCell id="zqOGd3VY8RIyfRowcfvK-3" value="" style="rounded=1;whiteSpace=wrap;html=1;fillColor=none;" parent="1" vertex="1">
          <mxGeometry x="1680" y="-240" width="480" height="160" as="geometry" />
        </mxCell>
        <mxCell id="zqOGd3VY8RIyfRowcfvK-5" value="" style="rounded=1;whiteSpace=wrap;html=1;fillColor=none;rotation=-90;" parent="1" vertex="1">
          <mxGeometry x="1120.8" y="237.3" width="474.39" height="160" as="geometry" />
        </mxCell>
        <mxCell id="zqOGd3VY8RIyfRowcfvK-6" value="&lt;font style=&quot;font-size: 20px;&quot;&gt;Attori&lt;/font&gt;" style="text;html=1;strokeColor=none;fillColor=none;align=center;verticalAlign=middle;whiteSpace=wrap;rounded=0;" parent="1" vertex="1">
          <mxGeometry x="1275.5" y="50" width="60" height="30" as="geometry" />
        </mxCell>
        <mxCell id="zqOGd3VY8RIyfRowcfvK-7" value="&lt;font style=&quot;font-size: 20px;&quot;&gt;Utente&lt;/font&gt;" style="rounded=0;whiteSpace=wrap;html=1;" parent="1" vertex="1">
          <mxGeometry x="1293" y="100" width="130" height="234" as="geometry" />
        </mxCell>
        <mxCell id="zqOGd3VY8RIyfRowcfvK-11" value="" style="endArrow=classic;html=1;rounded=0;" parent="1" edge="1">
          <mxGeometry width="50" height="50" relative="1" as="geometry">
            <mxPoint x="1480" y="126.52000000000001" as="sourcePoint" />
            <mxPoint x="1680" y="126.51999999999998" as="targetPoint" />
          </mxGeometry>
        </mxCell>
        <mxCell id="zqOGd3VY8RIyfRowcfvK-30" value="&lt;font style=&quot;font-size: 15px;&quot;&gt;Compra articolo&lt;/font&gt;" style="edgeLabel;html=1;align=center;verticalAlign=middle;resizable=0;points=[];" parent="zqOGd3VY8RIyfRowcfvK-11" vertex="1" connectable="0">
          <mxGeometry x="-0.0574" relative="1" as="geometry">
            <mxPoint as="offset" />
          </mxGeometry>
        </mxCell>
        <mxCell id="zqOGd3VY8RIyfRowcfvK-13" value="" style="endArrow=classic;html=1;rounded=0;" parent="1" edge="1">
          <mxGeometry width="50" height="50" relative="1" as="geometry">
            <mxPoint x="1699.58" y="-40" as="sourcePoint" />
            <mxPoint x="1699.58" y="80" as="targetPoint" />
          </mxGeometry>
        </mxCell>
        <mxCell id="zqOGd3VY8RIyfRowcfvK-14" value="&lt;font style=&quot;font-size: 15px;&quot;&gt;Lista articoli&lt;/font&gt;" style="edgeLabel;html=1;align=center;verticalAlign=middle;resizable=0;points=[];" parent="zqOGd3VY8RIyfRowcfvK-13" vertex="1" connectable="0">
          <mxGeometry x="-0.0437" y="1" relative="1" as="geometry">
            <mxPoint x="-1" y="43" as="offset" />
          </mxGeometry>
        </mxCell>
        <mxCell id="zqOGd3VY8RIyfRowcfvK-15" value="" style="endArrow=none;html=1;rounded=0;startArrow=classic;startFill=1;endFill=0;" parent="1" edge="1">
          <mxGeometry width="50" height="50" relative="1" as="geometry">
            <mxPoint x="1819.58" y="-40" as="sourcePoint" />
            <mxPoint x="1819.58" y="80" as="targetPoint" />
          </mxGeometry>
        </mxCell>
        <mxCell id="zqOGd3VY8RIyfRowcfvK-16" value="&lt;font style=&quot;font-size: 15px;&quot;&gt;Cerca articoli&lt;/font&gt;" style="edgeLabel;html=1;align=center;verticalAlign=middle;resizable=0;points=[];" parent="zqOGd3VY8RIyfRowcfvK-15" vertex="1" connectable="0">
          <mxGeometry x="-0.0437" y="1" relative="1" as="geometry">
            <mxPoint x="-1" y="-37" as="offset" />
          </mxGeometry>
        </mxCell>
        <mxCell id="zqOGd3VY8RIyfRowcfvK-17" value="" style="endArrow=none;html=1;rounded=0;startArrow=classic;startFill=1;endFill=0;" parent="1" edge="1">
          <mxGeometry width="50" height="50" relative="1" as="geometry">
            <mxPoint x="1754.58" y="-40" as="sourcePoint" />
            <mxPoint x="1754.33" y="80" as="targetPoint" />
          </mxGeometry>
        </mxCell>
        <mxCell id="zqOGd3VY8RIyfRowcfvK-18" value="&lt;font style=&quot;font-size: 15px;&quot;&gt;Rimuovi articoli&lt;/font&gt;" style="edgeLabel;html=1;align=center;verticalAlign=middle;resizable=0;points=[];" parent="zqOGd3VY8RIyfRowcfvK-17" vertex="1" connectable="0">
          <mxGeometry x="-0.0437" y="1" relative="1" as="geometry">
            <mxPoint as="offset" />
          </mxGeometry>
        </mxCell>
        <mxCell id="zqOGd3VY8RIyfRowcfvK-25" value="&lt;font style=&quot;font-size: 20px;&quot;&gt;Nexi&lt;/font&gt;" style="rounded=0;whiteSpace=wrap;html=1;" parent="1" vertex="1">
          <mxGeometry x="1690" y="735" width="210" height="130" as="geometry" />
        </mxCell>
        <mxCell id="zqOGd3VY8RIyfRowcfvK-33" value="" style="endArrow=classic;html=1;rounded=0;" parent="1" edge="1">
          <mxGeometry width="50" height="50" relative="1" as="geometry">
            <mxPoint x="1480" y="156.52" as="sourcePoint" />
            <mxPoint x="1680" y="157.48" as="targetPoint" />
          </mxGeometry>
        </mxCell>
        <mxCell id="zqOGd3VY8RIyfRowcfvK-34" value="&lt;font style=&quot;font-size: 15px;&quot;&gt;Cerca articoli&lt;br&gt;&lt;/font&gt;" style="edgeLabel;html=1;align=center;verticalAlign=middle;resizable=0;points=[];" parent="zqOGd3VY8RIyfRowcfvK-33" vertex="1" connectable="0">
          <mxGeometry x="-0.0574" relative="1" as="geometry">
            <mxPoint as="offset" />
          </mxGeometry>
        </mxCell>
        <mxCell id="zqOGd3VY8RIyfRowcfvK-35" value="" style="endArrow=none;html=1;rounded=0;startArrow=classic;startFill=1;endFill=0;" parent="1" edge="1">
          <mxGeometry width="50" height="50" relative="1" as="geometry">
            <mxPoint x="1480" y="186.52" as="sourcePoint" />
            <mxPoint x="1680" y="187.48" as="targetPoint" />
          </mxGeometry>
        </mxCell>
        <mxCell id="zqOGd3VY8RIyfRowcfvK-36" value="&lt;font style=&quot;font-size: 15px;&quot;&gt;Lista articoli&lt;br&gt;&lt;/font&gt;" style="edgeLabel;html=1;align=center;verticalAlign=middle;resizable=0;points=[];" parent="zqOGd3VY8RIyfRowcfvK-35" vertex="1" connectable="0">
          <mxGeometry x="-0.0574" relative="1" as="geometry">
            <mxPoint as="offset" />
          </mxGeometry>
        </mxCell>
        <mxCell id="zqOGd3VY8RIyfRowcfvK-37" value="&lt;font style=&quot;font-size: 20px;&quot;&gt;Ospite&lt;br&gt;&lt;/font&gt;" style="rounded=0;whiteSpace=wrap;html=1;" parent="1" vertex="1">
          <mxGeometry x="1293" y="354" width="130" height="186" as="geometry" />
        </mxCell>
        <mxCell id="zqOGd3VY8RIyfRowcfvK-38" value="" style="endArrow=classic;html=1;rounded=0;" parent="1" edge="1">
          <mxGeometry width="50" height="50" relative="1" as="geometry">
            <mxPoint x="1480" y="432.77" as="sourcePoint" />
            <mxPoint x="1680" y="432.77" as="targetPoint" />
          </mxGeometry>
        </mxCell>
        <mxCell id="zqOGd3VY8RIyfRowcfvK-39" value="&lt;font style=&quot;font-size: 15px;&quot;&gt;Visualizza articoli&lt;br&gt;&lt;/font&gt;" style="edgeLabel;html=1;align=center;verticalAlign=middle;resizable=0;points=[];" parent="zqOGd3VY8RIyfRowcfvK-38" vertex="1" connectable="0">
          <mxGeometry x="-0.0574" relative="1" as="geometry">
            <mxPoint as="offset" />
          </mxGeometry>
        </mxCell>
        <mxCell id="zqOGd3VY8RIyfRowcfvK-40" value="" style="endArrow=none;html=1;rounded=0;startArrow=classic;startFill=1;endFill=0;" parent="1" edge="1">
          <mxGeometry width="50" height="50" relative="1" as="geometry">
            <mxPoint x="1480" y="460.77" as="sourcePoint" />
            <mxPoint x="1677.5" y="460.2799999999999" as="targetPoint" />
          </mxGeometry>
        </mxCell>
        <mxCell id="zqOGd3VY8RIyfRowcfvK-41" value="&lt;font style=&quot;font-size: 15px;&quot;&gt;Lista articoli&lt;br&gt;&lt;/font&gt;" style="edgeLabel;html=1;align=center;verticalAlign=middle;resizable=0;points=[];" parent="zqOGd3VY8RIyfRowcfvK-40" vertex="1" connectable="0">
          <mxGeometry x="-0.0574" relative="1" as="geometry">
            <mxPoint as="offset" />
          </mxGeometry>
        </mxCell>
        <mxCell id="zqOGd3VY8RIyfRowcfvK-44" value="" style="rounded=1;whiteSpace=wrap;html=1;fillColor=none;rotation=-90;" parent="1" vertex="1">
          <mxGeometry x="2240" y="238" width="480" height="160" as="geometry" />
        </mxCell>
        <mxCell id="zqOGd3VY8RIyfRowcfvK-46" value="&lt;font style=&quot;font-size: 20px;&quot;&gt;Database&lt;/font&gt;" style="shape=cylinder3;whiteSpace=wrap;html=1;boundedLbl=1;backgroundOutline=1;size=15;" parent="1" vertex="1">
          <mxGeometry x="2425" y="198" width="110" height="240" as="geometry" />
        </mxCell>
        <mxCell id="zqOGd3VY8RIyfRowcfvK-47" value="" style="endArrow=classic;html=1;rounded=0;" parent="1" edge="1">
          <mxGeometry width="50" height="50" relative="1" as="geometry">
            <mxPoint x="2160" y="240.69000000000005" as="sourcePoint" />
            <mxPoint x="2360" y="240" as="targetPoint" />
          </mxGeometry>
        </mxCell>
        <mxCell id="zqOGd3VY8RIyfRowcfvK-48" value="&lt;font style=&quot;font-size: 15px;&quot;&gt;Aggiungi al carrello&lt;br&gt;&lt;/font&gt;" style="edgeLabel;html=1;align=center;verticalAlign=middle;resizable=0;points=[];" parent="zqOGd3VY8RIyfRowcfvK-47" vertex="1" connectable="0">
          <mxGeometry x="-0.0574" relative="1" as="geometry">
            <mxPoint as="offset" />
          </mxGeometry>
        </mxCell>
        <mxCell id="zqOGd3VY8RIyfRowcfvK-51" value="" style="endArrow=classic;html=1;rounded=0;" parent="1" edge="1">
          <mxGeometry width="50" height="50" relative="1" as="geometry">
            <mxPoint x="2160" y="320.35000000000014" as="sourcePoint" />
            <mxPoint x="2360" y="320" as="targetPoint" />
          </mxGeometry>
        </mxCell>
        <mxCell id="zqOGd3VY8RIyfRowcfvK-52" value="&lt;font style=&quot;font-size: 15px;&quot;&gt;Rimuovi dal carrello&lt;br&gt;&lt;/font&gt;" style="edgeLabel;html=1;align=center;verticalAlign=middle;resizable=0;points=[];" parent="zqOGd3VY8RIyfRowcfvK-51" vertex="1" connectable="0">
          <mxGeometry x="-0.0574" relative="1" as="geometry">
            <mxPoint as="offset" />
          </mxGeometry>
        </mxCell>
        <mxCell id="zqOGd3VY8RIyfRowcfvK-53" value="" style="endArrow=none;html=1;rounded=0;startArrow=classic;startFill=1;endFill=0;" parent="1" edge="1">
          <mxGeometry width="50" height="50" relative="1" as="geometry">
            <mxPoint x="2160" y="400.6900000000001" as="sourcePoint" />
            <mxPoint x="2360" y="400" as="targetPoint" />
          </mxGeometry>
        </mxCell>
        <mxCell id="zqOGd3VY8RIyfRowcfvK-54" value="&lt;font style=&quot;font-size: 15px;&quot;&gt;Lista carrello&lt;br&gt;&lt;/font&gt;" style="edgeLabel;html=1;align=center;verticalAlign=middle;resizable=0;points=[];" parent="zqOGd3VY8RIyfRowcfvK-53" vertex="1" connectable="0">
          <mxGeometry x="-0.0574" relative="1" as="geometry">
            <mxPoint as="offset" />
          </mxGeometry>
        </mxCell>
        <mxCell id="zqOGd3VY8RIyfRowcfvK-57" value="&lt;font style=&quot;font-size: 20px;&quot;&gt;PayPal&lt;/font&gt;" style="rounded=0;whiteSpace=wrap;html=1;" parent="1" vertex="1">
          <mxGeometry x="1935" y="735" width="215" height="130" as="geometry" />
        </mxCell>
        <mxCell id="zqOGd3VY8RIyfRowcfvK-59" value="" style="endArrow=classic;html=1;rounded=0;" parent="1" edge="1">
          <mxGeometry width="50" height="50" relative="1" as="geometry">
            <mxPoint x="1919.81" y="560" as="sourcePoint" />
            <mxPoint x="1919.58" y="680" as="targetPoint" />
          </mxGeometry>
        </mxCell>
        <mxCell id="zqOGd3VY8RIyfRowcfvK-60" value="&lt;span style=&quot;font-size: 15px;&quot;&gt;Pagamenti&lt;/span&gt;" style="edgeLabel;html=1;align=center;verticalAlign=middle;resizable=0;points=[];" parent="zqOGd3VY8RIyfRowcfvK-59" vertex="1" connectable="0">
          <mxGeometry x="-0.0437" y="1" relative="1" as="geometry">
            <mxPoint as="offset" />
          </mxGeometry>
        </mxCell>
        <mxCell id="zqOGd3VY8RIyfRowcfvK-61" value="" style="endArrow=classic;html=1;rounded=0;" parent="1" edge="1">
          <mxGeometry width="50" height="50" relative="1" as="geometry">
            <mxPoint x="1480" y="276.52" as="sourcePoint" />
            <mxPoint x="1680" y="276.52" as="targetPoint" />
          </mxGeometry>
        </mxCell>
        <mxCell id="zqOGd3VY8RIyfRowcfvK-62" value="&lt;font style=&quot;font-size: 15px;&quot;&gt;Svuota carrello&lt;br&gt;&lt;/font&gt;" style="edgeLabel;html=1;align=center;verticalAlign=middle;resizable=0;points=[];" parent="zqOGd3VY8RIyfRowcfvK-61" vertex="1" connectable="0">
          <mxGeometry x="-0.0574" relative="1" as="geometry">
            <mxPoint as="offset" />
          </mxGeometry>
        </mxCell>
        <mxCell id="zqOGd3VY8RIyfRowcfvK-65" value="" style="endArrow=classic;html=1;rounded=0;" parent="1" edge="1">
          <mxGeometry width="50" height="50" relative="1" as="geometry">
            <mxPoint x="1480" y="247.51999999999998" as="sourcePoint" />
            <mxPoint x="1680" y="247.82" as="targetPoint" />
          </mxGeometry>
        </mxCell>
        <mxCell id="zqOGd3VY8RIyfRowcfvK-66" value="&lt;font style=&quot;font-size: 15px;&quot;&gt;Rimuovi dal carrello&lt;br&gt;&lt;/font&gt;" style="edgeLabel;html=1;align=center;verticalAlign=middle;resizable=0;points=[];" parent="zqOGd3VY8RIyfRowcfvK-65" vertex="1" connectable="0">
          <mxGeometry x="-0.0574" relative="1" as="geometry">
            <mxPoint as="offset" />
          </mxGeometry>
        </mxCell>
        <mxCell id="zqOGd3VY8RIyfRowcfvK-67" value="" style="endArrow=classic;html=1;rounded=0;" parent="1" edge="1">
          <mxGeometry width="50" height="50" relative="1" as="geometry">
            <mxPoint x="1480" y="217.52" as="sourcePoint" />
            <mxPoint x="1680" y="217.17" as="targetPoint" />
          </mxGeometry>
        </mxCell>
        <mxCell id="zqOGd3VY8RIyfRowcfvK-68" value="&lt;font style=&quot;font-size: 15px;&quot;&gt;Aggiungi al carrello&lt;/font&gt;" style="edgeLabel;html=1;align=center;verticalAlign=middle;resizable=0;points=[];" parent="zqOGd3VY8RIyfRowcfvK-67" vertex="1" connectable="0">
          <mxGeometry x="-0.0574" relative="1" as="geometry">
            <mxPoint as="offset" />
          </mxGeometry>
        </mxCell>
        <mxCell id="zqOGd3VY8RIyfRowcfvK-69" value="&lt;font style=&quot;font-size: 20px;&quot;&gt;Microservizio &quot;Magazzino&quot;&lt;/font&gt;" style="rounded=0;whiteSpace=wrap;html=1;" parent="1" vertex="1">
          <mxGeometry x="1690" y="-230" width="140" height="140" as="geometry" />
        </mxCell>
        <mxCell id="zqOGd3VY8RIyfRowcfvK-70" value="&lt;span style=&quot;font-size: 20px;&quot;&gt;Microservizio &quot;Autenticazione&quot;&lt;/span&gt;" style="rounded=0;whiteSpace=wrap;html=1;" parent="1" vertex="1">
          <mxGeometry x="2000" y="-230" width="150" height="140" as="geometry" />
        </mxCell>
        <mxCell id="zqOGd3VY8RIyfRowcfvK-71" value="" style="endArrow=classic;html=1;rounded=0;startArrow=classic;startFill=1;endFill=1;" parent="1" edge="1">
          <mxGeometry width="50" height="50" relative="1" as="geometry">
            <mxPoint x="2080" y="-40" as="sourcePoint" />
            <mxPoint x="2080" y="80" as="targetPoint" />
          </mxGeometry>
        </mxCell>
        <mxCell id="zqOGd3VY8RIyfRowcfvK-72" value="&lt;span style=&quot;font-size: 15px;&quot;&gt;Identifica utente&lt;/span&gt;" style="edgeLabel;html=1;align=center;verticalAlign=middle;resizable=0;points=[];" parent="zqOGd3VY8RIyfRowcfvK-71" vertex="1" connectable="0">
          <mxGeometry x="-0.0437" y="1" relative="1" as="geometry">
            <mxPoint y="3" as="offset" />
          </mxGeometry>
        </mxCell>
        <mxCell id="zqOGd3VY8RIyfRowcfvK-75" value="" style="endArrow=none;html=1;rounded=0;startArrow=classic;startFill=1;endFill=0;" parent="1" edge="1">
          <mxGeometry width="50" height="50" relative="1" as="geometry">
            <mxPoint x="1480" y="306.52" as="sourcePoint" />
            <mxPoint x="1680" y="306.52" as="targetPoint" />
          </mxGeometry>
        </mxCell>
        <mxCell id="zqOGd3VY8RIyfRowcfvK-76" value="&lt;font style=&quot;font-size: 15px;&quot;&gt;Lista carrello&lt;br&gt;&lt;/font&gt;" style="edgeLabel;html=1;align=center;verticalAlign=middle;resizable=0;points=[];" parent="zqOGd3VY8RIyfRowcfvK-75" vertex="1" connectable="0">
          <mxGeometry x="-0.0574" relative="1" as="geometry">
            <mxPoint as="offset" />
          </mxGeometry>
        </mxCell>
        <mxCell id="zqOGd3VY8RIyfRowcfvK-77" value="&lt;font style=&quot;font-size: 20px;&quot;&gt;Microservizio &quot;Task&quot;&lt;/font&gt;" style="rounded=0;whiteSpace=wrap;html=1;" parent="1" vertex="1">
          <mxGeometry x="1840" y="-230" width="150" height="140" as="geometry" />
        </mxCell>
        <mxCell id="zqOGd3VY8RIyfRowcfvK-80" value="" style="endArrow=none;html=1;rounded=0;startArrow=classic;startFill=1;endFill=0;" parent="1" edge="1">
          <mxGeometry width="50" height="50" relative="1" as="geometry">
            <mxPoint x="1919.94" y="-40" as="sourcePoint" />
            <mxPoint x="1919.58" y="80" as="targetPoint" />
          </mxGeometry>
        </mxCell>
        <mxCell id="zqOGd3VY8RIyfRowcfvK-81" value="&lt;font style=&quot;font-size: 15px;&quot;&gt;Creazione task&lt;/font&gt;" style="edgeLabel;html=1;align=center;verticalAlign=middle;resizable=0;points=[];" parent="zqOGd3VY8RIyfRowcfvK-80" vertex="1" connectable="0">
          <mxGeometry x="-0.0437" y="1" relative="1" as="geometry">
            <mxPoint as="offset" />
          </mxGeometry>
        </mxCell>
        <mxCell id="t1OYCKZXs4FjRt_K26Sn-1" value="&lt;font style=&quot;font-size: 20px;&quot;&gt;Subordinati&lt;/font&gt;" style="text;html=1;strokeColor=none;fillColor=none;align=center;verticalAlign=middle;whiteSpace=wrap;rounded=0;" parent="1" vertex="1">
          <mxGeometry x="2390" y="50" width="130" height="30" as="geometry" />
        </mxCell>
        <mxCell id="t1OYCKZXs4FjRt_K26Sn-2" value="&lt;font style=&quot;font-size: 20px;&quot;&gt;Attori&lt;/font&gt;" style="text;html=1;strokeColor=none;fillColor=none;align=center;verticalAlign=middle;whiteSpace=wrap;rounded=0;" parent="1" vertex="1">
          <mxGeometry x="1640" y="-270" width="130" height="30" as="geometry" />
        </mxCell>
        <mxCell id="t1OYCKZXs4FjRt_K26Sn-3" value="&lt;font style=&quot;font-size: 20px;&quot;&gt;Subordinati&lt;/font&gt;" style="text;html=1;strokeColor=none;fillColor=none;align=center;verticalAlign=middle;whiteSpace=wrap;rounded=0;" parent="1" vertex="1">
          <mxGeometry x="1670" y="880" width="130" height="30" as="geometry" />
        </mxCell>
      </root>
    </mxGraphModel>
  </diagram>
</mxfile>
